<svg width="40" height="40" viewBox="0 0 40 40" fill="none" xmlns="http://www.w3.org/2000/svg">
<path d="M26 26C24.89 26 24 26.89 24 28C24 28.5304 24.2107 29.0391 24.5858 29.4142C24.9609 29.7893 25.4696 30 26 30C26.5304 30 27.0391 29.7893 27.4142 29.4142C27.7893 29.0391 28 28.5304 28 28C28 27.4696 27.7893 26.9609 27.4142 26.5858C27.0391 26.2107 26.5304 26 26 26ZM10 10V12H12L15.6 19.59L14.24 22.04C14.09 22.32 14 22.65 14 23C14 23.5304 14.2107 24.0391 14.5858 24.4142C14.9609 24.7893 15.4696 25 16 25H28V23H16.42C16.3537 23 16.2901 22.9737 16.2432 22.9268C16.1963 22.8799 16.17 22.8163 16.17 22.75C16.17 22.7 16.18 22.66 16.2 22.63L17.1 21H24.55C25.3 21 25.96 20.58 26.3 19.97L29.88 13.5C29.95 13.34 30 13.17 30 13C30 12.7348 29.8946 12.4804 29.7071 12.2929C29.5196 12.1054 29.2652 12 29 12H14.21L13.27 10M16 26C14.89 26 14 26.89 14 28C14 28.5304 14.2107 29.0391 14.5858 29.4142C14.9609 29.7893 15.4696 30 16 30C16.5304 30 17.0391 29.7893 17.4142 29.4142C17.7893 29.0391 18 28.5304 18 28C18 27.4696 17.7893 26.9609 17.4142 26.5858C17.0391 26.2107 16.5304 26 16 26Z" fill="black"/>
</svg>
